<svg width="24" height="24" viewBox="0 0 24 24" fill="#fff" xmlns="http://www.w3.org/2000/svg">
<path fill-rule="evenodd" clip-rule="evenodd" d="M12 24C18.6274 24 24 18.6274 24 12C24 5.37258 18.6274 0 12 0C5.37258 0 0 5.37258 0 12C0 18.6274 5.37258 24 12 24Z" fill="#F1F1F1"/>
<path fill-rule="evenodd" clip-rule="evenodd" d="M11 5C10.4477 5 10 5.44772 10 6V10H6C5.44772 10 5 10.4477 5 11V13C5 13.5523 5.44772 14 6 14H10V18C10 18.5523 10.4477 19 11 19H13C13.5523 19 14 18.5523 14 18V14H18C18.5523 14 19 13.5523 19 13V11C19 10.4477 18.5523 10 18 10H14V6C14 5.44772 13.5523 5 13 5H11Z" fill="#fff"/>
</svg>
