<svg xmlns="http://www.w3.org/2000/svg" xmlns:xlink="http://www.w3.org/1999/xlink"><symbol id="arrow" viewBox="0 0 12 8">
<path fill-rule="evenodd" clip-rule="evenodd" d="M5.36605 0.272991L0.264458 5.53921C-0.0881526 5.90319 -0.0881526 6.49177 0.264458 6.85189L1.11222 7.72701C1.46483 8.091 2.03501 8.091 2.38387 7.72701L6 3.99419L9.61613 7.72701C9.96874 8.091 10.5389 8.091 10.8878 7.72701L11.7355 6.85189C12.0882 6.4879 12.0882 5.89932 11.7355 5.53921L6.63395 0.272991C6.28884 -0.0909967 5.71866 -0.0909967 5.36605 0.272991Z"/>
</symbol><symbol id="plus" viewBox="0 0 24 24">
<path fill-rule="evenodd" clip-rule="evenodd" d="M12 24C18.6274 24 24 18.6274 24 12C24 5.37258 18.6274 0 12 0C5.37258 0 0 5.37258 0 12C0 18.6274 5.37258 24 12 24Z"/>
<path fill-rule="evenodd" clip-rule="evenodd" d="M11 5C10.4477 5 10 5.44772 10 6V10H6C5.44772 10 5 10.4477 5 11V13C5 13.5523 5.44772 14 6 14H10V18C10 18.5523 10.4477 19 11 19H13C13.5523 19 14 18.5523 14 18V14H18C18.5523 14 19 13.5523 19 13V11C19 10.4477 18.5523 10 18 10H14V6C14 5.44772 13.5523 5 13 5H11Z"/>
</symbol><symbol id="bid" viewBox="0 0 40 27">
<path fill-rule="evenodd" clip-rule="evenodd" d="M0 0H22.8571V3.80952H0V0ZM0 7.61905H22.8571V11.4286H0V7.61905ZM0 19.0476H15.2381V15.2381H0V19.0476ZM40 13.3333L37.1429 10.4762L26.6762 20.9524L20.9524 15.2381L18.0952 18.0952L26.6762 26.6667L40 13.3333Z"/>
</symbol><symbol id="copy" viewBox="0 0 14 17">
<path fill-rule="evenodd" clip-rule="evenodd" d="M10.1818 0.195435H1.45455C0.654545 0.195435 0 0.84998 0 1.64998V11.8318H1.45455V1.64998H10.1818V0.195435ZM12.3636 3.10453H4.36364C3.56364 3.10453 2.90909 3.75907 2.90909 4.55907V14.7409C2.90909 15.5409 3.56364 16.1954 4.36364 16.1954H12.3636C13.1636 16.1954 13.8182 15.5409 13.8182 14.7409V4.55907C13.8182 3.75907 13.1636 3.10453 12.3636 3.10453ZM4.36364 14.7409H12.3636V4.55907H4.36364V14.7409Z"/>
</symbol><symbol id="triangle" viewBox="0 0 40 40">
<path fill-rule="evenodd" clip-rule="evenodd" d="M0 20C0 8.95 8.95 0 20 0C31.05 0 40 8.95 40 20C40 31.05 31.05 40 20 40C8.95 40 0 31.05 0 20ZM28 20L16 11V29L28 20Z"/>
</symbol></svg>